<?xml version="1.0" encoding="iso-8859-1"?>
<!-- Generator: Adobe Illustrator 19.1.0, SVG Export Plug-In . SVG Version: 6.00 Build 0)  -->
<svg version="1.1" id="Ebene_3" xmlns="http://www.w3.org/2000/svg" xmlns:xlink="http://www.w3.org/1999/xlink" x="0px" y="0px"
	 viewBox="0 0 700 560" style="enable-background:new 0 0 700 560;" xml:space="preserve">
<g>
	<path style="fill:#666666;enable-background:new    ;" d="M361.052,420.355c0,2.936-1.208,5.927-3.672,8.128
		c-4.456,4.085-11.375,3.72-15.461-0.843L87.919,147.119c-4.139-4.509-3.828-11.483,0.628-15.627
		c4.563-4.032,11.536-3.72,15.729,0.891l253.948,280.58C360.161,414.954,361.052,417.627,361.052,420.355z"/>
	<path style="fill:#666666;enable-background:new    ;" d="M615,139.727c0,2.62-0.945,5.293-2.834,7.392L358.223,427.639
		c-4.091,4.563-11.064,4.928-15.573,0.843c-4.456-4.144-4.874-11.064-0.73-15.52l253.942-280.58
		c3.983-4.611,11.118-4.923,15.573-0.891C613.738,133.644,615,136.736,615,139.727z"/>
</g>
</svg>
