<svg height="18" viewBox="0 0 20 18" width="20" xmlns="http://www.w3.org/2000/svg"><g fill="none" fill-rule="evenodd" stroke="#009ee0" stroke-linecap="round" stroke-width="1.5" transform="translate(1.123857 1)"><path d="m6.65710694 12.6714465c.63496652-.4241541 1.39812196-.6714465 2.21903565-.6714465.82091368 0 1.58406911.2472924 2.21903561.6714465l-2.21903561 3.3285535z" stroke-linejoin="round"/><path d="m4.43807129 9.34289306c1.26993303-.84830824 2.79624393-1.34289306 4.4380713-1.34289306 1.64182741 0 3.16813821.49458482 4.43807131 1.34289306"/><path d="m2.21903565 6.01433959c1.90489954-1.27246237 4.19436589-2.01433959 6.65710694-2.01433959 2.46274101 0 4.75220741.74187722 6.65710691 2.01433959"/><path d="m0 2.68578612c2.53986606-1.69661649 5.59248785-2.68578612 8.87614259-2.68578612 3.28365471 0 6.33627651.98916963 8.87614261 2.68578612"/></g></svg>