<svg height="20" viewBox="0 0 20 20" width="20" xmlns="http://www.w3.org/2000/svg"><path d="m16.6935484 26.0854583c0 .110269-.0739245.1722952-.2217742.1860786s-.2217742-.0344588-.2217742-.1447278.0672045-.1654031.2016129-.1654031c.0806452 0 .141129.0137834.1814516.0413508s.0604839.0551341.0604839.0827015zm-1.25-.1654031c.0268819-.110269.1075271-.1447278.2419355-.103377s.1948922.096485.1814516.1654032c-.0134407.0689182-.0470432.1171603-.1008065.1447277-.0537632.0275674-.1075271.0275674-.1612903 0s-.1008064-.0620262-.141129-.1033769c-.0403226-.0413508-.0470432-.0758096-.0201613-.103377zm1.7741935-.0827016c.1344084 0 .2083336.0413508.2217742.1240524.0134407.0827015-.0470432.1516197-.1814516.2067539-.0537632 0-.1008064-.006892-.141129-.0206754s-.0672045-.0620262-.0806452-.1447277c-.0134406-.0827016.0470432-.1378358.1814516-.1654032zm2.6612904-15.8373536c1.8279567 0 3.5215051.4410753 5.0806451 1.3232254 1.55914.88215 2.7822581 2.081323 3.6693549 3.5975189.9139787 1.5713301 1.3709677 3.2942801 1.3709677 5.1688491 0 2.288077-.625 4.3349412-1.875 6.1405927s-2.8830645 3.0530667-4.8991935 3.7422468c-.2150536.0551341-.3830646.0275674-.5040323-.0827016s-.1814516-.2481048-.1814516-.413508v-3.4734665c0-.8821501-.2284948-1.516196-.6854839-1.9021365.9946239-.110269 1.733871-.2481048 2.2177419-.4135079.7526884-.2756722 1.3306452-.6891801 1.733871-1.2405238.4569891-.7167469.6854839-1.6953825.6854839-2.9359063 0-.5237769-.0940858-.9786356-.2822581-1.3645761-.1344084-.2756722-.3897851-.6202619-.766129-1.0337699.1075271-.2756721.174731-.6064785.2016129-.992419.0268819-.6064785-.0672045-1.2129564-.2822581-1.8194349-.2688174-.0827015-.6451613-.0275674-1.1290322.1654032-.3225807.1378358-.6989246.3308063-1.1290323.5789111l-.5241935.3721571c-.8333336-.2481047-1.6868278-.3721571-2.5604839-.3721571s-1.7137097.1240524-2.5201613.3721571l-.5241935-.3721571c-.4301078-.2481048-.8198923-.4410753-1.1693549-.5789111-.483871-.1929706-.8467742-.2481047-1.0887097-.1654032-.2419354.6064785-.3360213 1.2129564-.282258 1.8194349 0 .3859405.0537632.7029635.1612903.9510682-.3225807.413508-.5577955.7925571-.7056452 1.1371468-.1478496.3445898-.2217742.7787731-.2217742 1.30255 0 1.2405238.2150536 2.2053754.6451613 2.8945555.3763439.5789111.94086 1.0062024 1.6935484 1.2818746.483871.1654031 1.2096774.3032389 2.1774194.4135079-.3494626.3308063-.5645162.7994484-.6451613 1.4059269-.4569891.2205374-.9005374.303239-1.3306452.2481048-.6989245-.0551342-1.2365593-.4272913-1.6129032-1.1164714-.1612903-.3032389-.3763439-.5513437-.6451613-.7443143-.1881722-.110269-.3897851-.2067539-.6048387-.2894555l-.2822581-.0413508c-.2956987 0-.450269.0482428-.4637096.1447278-.0134407.0964849.0470432.1998619.1814516.3101309l.2016129.1654032c.1881722.110269.3763438.2894555.5645161.5375603.1612903.1929706.2956987.4135079.4032258.6616127l.1612903.3308063c.1344084.4135079.3897852.7305309.7661291.9510682.3225806.1929706.7123658.317023 1.1693548.3721572.3225806.0275674.6586019.0137834 1.0080645-.0413508l.4435484-.0413508.0403226 2.5223983c0 .1654032-.0604839.303239-.1814516.413508-.1209678.110269-.2889787.1378357-.5040323.0827016-2.0430109-.6891801-3.6962368-1.9365953-4.9596774-3.7422468-1.2634407-1.8056515-1.8951613-3.8525157-1.8951613-6.1405927 0-1.874569.4301077-3.5837356 1.2903226-5.1274983.8602148-1.5437627 2.0430109-2.7567197 3.5483871-3.6388697 1.5053761-.8821501 3.1854838-1.3232254 5.0403226-1.3232254zm-5.967742 14.2660235c.0537633-.0551342.1209678-.0413508.2016129.0413508.0806452.0827015.0940858.1516197.0403226.2067539s-.1209677.0413508-.2016129-.0413508-.0940858-.1516198-.0403226-.2067539zm-.4435484-.3308064c.0537633-.0551342.1209678-.0620262.2016129-.0206754.0806452.0413508.1075271.096485.0806452.1654032s-.0873658.0758096-.1814516.0206754-.1276884-.110269-.1008065-.1654032zm1.3306452 1.4472778c.0268819-.0275674.0672045-.0344588.1209677-.0206754.0537633.0137834.1008065.0413508.1411291.0827016.0403226.0413507.0672045.0895936.0806451.1447277.0134407.0551342.0067207.096485-.0201613.1240524-.0806451.0827016-.1747309.0689182-.282258-.0413508-.0537633-.0551342-.0806452-.110269-.0806452-.1654032 0-.0551341.0134407-.0964849.0403226-.1240523zm-.483871-.5789111c.0537633-.0275674.1008065-.0344588.1411291-.0206754.0403225.0137834.0739245.0482428.1008064.103377.0806452.1102689.0806452.1929705 0 .2481047-.0268819.0275674-.0604839.0275674-.1008064 0-.0403226-.0275674-.0873658-.0551342-.1411291-.0827016-.0537632-.1378357-.0537632-.2205373 0-.2481047z" fill="#dc0067" transform="translate(-10 -10)"/></svg>