<svg height="14" viewBox="0 0 28 14" width="28" xmlns="http://www.w3.org/2000/svg">
    <style>
        g {
        fill: #dc0067;
        }
        @media (prefers-color-scheme: dark) {
        g {
        fill: #ffb400;
        }
        }
    </style>
    <g fill="#dc0067" fill-rule="nonzero" transform="translate(.25 .75)">
        <path d="m9.1494 1.00375c-.74520373.40333535-1.49039627.80208136-2.2356 1.19625-2.24481122 1.20083934-3.66619701 1.96166506-4.2642 2.2825-1.59160796.84333755-2.47479913 1.30624959-2.6496 1.38875.21160106-.21083439.45539862-.47666506.7314-.7975.53360267-.61416974.95679844-1.19166396 1.2696-1.7325.45080225-.77000385.6762-1.42999725.6762-1.98 0-.13750069-.01379986-.27041603-.0414-.39875h2.0286c.96600483 0 1.94119508.00229164 2.9256.006875s1.50419972.01604158 1.5594.034375zm-3.519 2.585c1.13160566 1.18250591 1.6974 2.34207765 1.6974 3.47875 0 1.79667565-1.40298597 3.5795745-4.209 5.34875.39560198-.7608371.64859945-1.3108316.759-1.65.18400092-.5591695.276-1.08624753.276-1.58125 0-.71500358-.17939821-1.35208054-.5382-1.91125-.43240216-.67833673-1.13159517-1.23291451-2.0976-1.66375z"/>
        <path d="m11.316.34375h8.1972c-.0736004.17416754-.3656974.37583219-.8763.605s-.8578991.47666534-1.0419.7425c-.2760014.53166932-.4829993.92124876-.621 1.16875-.2484012.45833562-.4783989.6875-.69.6875-.0552003.10083384-.0919999.17416644-.1104.22-.0736004.15583411-.1104.25208315-.1104.28875.1472007.32083494.2943993.63708177.4416.94875.3404017.85250426.6163989 1.84249436.828 2.97.3036015 1.62250811.4554 3.4008237.4554 5.335l-.6072-2.145c-.4876024-1.47584071-1.1867954-2.64457902-2.0976-3.50625-1.3156066-1.23750619-3.0451893-1.85625-5.1888-1.85625 1.1684058-.2200011 2.1251963-.53624794 2.8704-.94875.598003-.33000165 1.0533984-.71958109 1.3662-1.16875.2300012-.33000165.345-.62791534.345-.89375 0-.0733337-.1816982-.12604151-.5451-.158125s-.8578969-.048125-1.4835-.048125-1.1453979.00458329-1.5594.01375-.8003982.02749986-1.1592.055c.3680018-.37583521.6715988-.72874835.9108-1.05875s.4645989-.74708081.6762-1.25125z"/>
        <g transform="translate(19.0118)">
            <path d="m8.5974 11.22-3.036-.0275c-.13800069 0-.46459742-.2199978-.9798-.66-.57040285-.5225026-1.13619719-1.04958068-1.6974-1.58125.78200391-.32083494 1.37539798-.8112467 1.7802-1.47125.34960175-.57750289.5244-1.21457985.5244-1.91125 0-.71500358-.15869841-1.33374739-.4761-1.85625s-.7060977-.78375-1.1661-.78375c-.2392012 0-.48759871.09624904-.7452.28875s-.50139885.48583136-.7314.88c.08280041-.69667015.14259982-1.23749808.1794-1.6225.1196006-1.1733392.1794-1.99833095.1794-2.475.49680248.3666685 1.0349971.66916548 1.6146.9075l1.4628.4675c.02760014.00916671.28059761.76540915.759 2.26875.61640308 1.92500962 1.08099844 3.4008282 1.3938 4.4275.49680248 1.63167482.80959936 2.6812477.9384 3.14875z"/>
            <path d="m4.6506 11.2475h-2.1666c-.26680133 0-.60259798-.430829-1.0074-1.2925-.32200161-.67833673-.64399839-1.51249505-.966-2.5025-.26680133-.81583741-.43699963-1.38416506-.5106-1.705.07360037.19250096.25759853.51333109.552.9625.45080225.70583686.95679719 1.38416341 1.518 2.035.77280386.89833782 1.63299526 1.7324961 2.5806 2.5025z"/>
        </g>
    </g>
</svg>